<?xml version="1.0" standalone="no"?>
<!DOCTYPE svg PUBLIC "-//W3C//DTD SVG 20010904//EN"
 "http://www.w3.org/TR/2001/REC-SVG-20010904/DTD/svg10.dtd">
<svg version="1.0" xmlns="http://www.w3.org/2000/svg"
 width="775.000000pt" height="775.000000pt" viewBox="0 0 775.000000 775.000000"
 preserveAspectRatio="xMidYMid meet">
<metadata>
Created by potrace 1.14, written by Peter Selinger 2001-2017
</metadata>
<g transform="translate(0.000000,775.000000) scale(0.100000,-0.100000)"
fill="#000000" stroke="none">
<path d="M983 7359 c-100 -18 -288 -133 -356 -217 -10 -12 -24 -28 -31 -35
-48 -50 -110 -138 -142 -204 -21 -43 -42 -79 -46 -81 -4 -2 -8 -11 -8 -20 0
-8 -6 -23 -13 -31 -7 -9 -21 -36 -31 -61 -10 -25 -21 -52 -25 -60 -5 -8 -14
-40 -21 -70 -7 -30 -16 -59 -20 -65 -4 -5 -15 -44 -25 -85 -21 -94 -19 -84
-49 -215 -57 -242 -68 -292 -72 -333 -2 -24 -11 -70 -19 -103 -9 -33 -14 -63
-11 -68 3 -4 -2 -36 -10 -71 -24 -105 -29 -157 -25 -280 1 -25 0 -80 -1 -123
-2 -42 -1 -77 2 -77 3 0 5 -21 4 -48 0 -26 5 -66 12 -89 7 -24 10 -43 9 -43
-2 0 2 -15 10 -34 8 -18 17 -45 20 -60 3 -14 7 -37 10 -51 3 -13 10 -37 16
-52 6 -16 13 -39 15 -53 3 -14 9 -36 14 -50 5 -14 11 -34 13 -45 2 -11 11 -36
20 -55 16 -33 35 -63 130 -204 52 -77 263 -276 293 -276 3 0 12 -6 19 -12 29
-26 41 -34 95 -57 109 -47 140 -66 140 -83 0 -10 -6 -22 -12 -28 -18 -16 -119
-80 -125 -80 -13 0 -172 -149 -208 -195 -11 -14 -28 -35 -37 -47 -10 -12 -18
-25 -18 -29 0 -5 -9 -19 -20 -32 -21 -24 -50 -70 -72 -117 -7 -14 -15 -27 -18
-30 -25 -21 -84 -224 -125 -433 -2 -9 -6 -21 -10 -26 -3 -5 -1 -12 4 -15 4 -3
5 -23 2 -43 -8 -42 -6 -308 3 -391 3 -29 11 -72 17 -95 13 -50 18 -72 25 -111
3 -16 11 -41 16 -55 6 -14 12 -31 13 -36 2 -6 16 -32 33 -59 17 -27 29 -53 26
-57 -3 -5 0 -9 5 -9 6 0 11 -7 11 -15 0 -26 58 -139 88 -170 16 -17 41 -50 57
-75 16 -25 43 -67 61 -95 46 -73 217 -243 310 -311 14 -10 32 -25 39 -32 8 -6
21 -12 29 -12 9 0 16 -4 16 -10 0 -5 6 -10 13 -10 8 0 24 -9 37 -20 12 -11 27
-17 31 -14 5 3 9 2 9 -3 0 -8 15 -15 100 -48 19 -8 116 -33 215 -55 99 -23
189 -44 200 -46 23 -6 220 -5 280 1 72 7 130 17 148 26 9 6 17 7 17 3 0 -3 10
0 22 8 13 8 33 13 46 12 12 -1 22 2 22 6 0 4 8 10 18 12 9 3 22 6 27 7 6 2 19
8 30 14 11 6 22 12 25 12 13 4 69 28 103 45 20 11 37 17 37 13 0 -4 10 3 23
14 12 11 32 24 45 28 12 3 22 11 22 16 0 5 5 9 10 9 6 0 38 18 71 40 33 22 63
40 65 40 6 0 199 154 225 179 9 9 33 30 54 46 20 17 64 57 97 90 68 66 87 74
114 44 11 -12 18 -22 16 -23 -4 -1 -1 -11 29 -96 12 -36 27 -71 32 -77 5 -7 6
-13 2 -13 -4 0 -1 -7 6 -16 8 -9 14 -22 14 -28 1 -16 21 -63 55 -129 17 -31
30 -60 31 -65 2 -14 43 -88 92 -167 42 -68 91 -133 192 -254 34 -41 141 -145
185 -181 23 -19 48 -41 55 -47 8 -7 16 -13 20 -13 3 0 29 -17 58 -37 73 -53
115 -75 156 -83 20 -4 137 -31 261 -60 124 -29 239 -52 255 -51 17 1 71 4 120
6 80 4 140 10 155 15 3 2 8 2 13 1 4 0 7 3 7 9 0 6 3 9 8 8 7 -2 102 11 137
19 11 2 25 5 30 6 6 2 16 6 23 10 6 5 17 5 22 2 6 -3 10 -2 10 3 0 10 101 66
140 77 28 8 108 56 160 96 19 15 38 27 43 28 20 3 97 44 97 52 0 5 4 9 10 9
11 0 53 34 79 63 8 9 21 17 28 17 7 0 13 5 13 10 0 6 7 10 16 10 8 0 13 4 9 9
-3 5 3 12 13 15 28 9 162 145 162 165 0 6 6 14 13 18 7 4 21 25 32 46 11 20
22 37 26 37 6 0 14 22 17 43 0 5 9 16 19 25 41 38 113 206 142 332 16 69 42
184 59 255 17 72 29 144 27 160 -2 17 -7 75 -10 129 -3 55 -8 102 -10 106 -2
3 -7 20 -10 36 -3 16 -7 34 -9 39 -2 6 -6 24 -10 40 -4 17 -10 37 -13 45 -4 8
-7 17 -8 20 -29 107 -68 191 -126 277 -54 77 -35 99 76 88 33 -3 65 -6 70 -6
12 -1 129 10 165 16 14 2 45 6 69 10 24 3 48 8 53 11 5 3 19 7 31 9 45 8 88
24 152 57 22 11 60 32 85 45 25 13 61 37 80 53 19 17 41 30 48 30 7 0 15 7 19
15 3 9 18 22 33 30 45 23 204 185 260 265 14 19 27 37 31 40 6 6 62 96 91 148
10 18 18 39 18 47 0 8 5 15 10 15 6 0 10 9 10 20 0 11 4 20 9 20 10 0 71 137
71 161 0 11 4 19 8 19 5 0 15 18 22 40 7 22 17 40 22 40 4 0 8 9 8 19 0 11 4
21 9 23 6 2 12 18 16 35 3 18 19 89 35 157 16 68 31 136 34 151 3 15 9 32 14
38 5 7 15 35 21 62 6 28 26 118 46 200 34 143 42 197 50 345 2 36 7 92 11 125
8 79 8 185 -1 260 -3 33 -8 71 -9 85 -4 35 -17 93 -25 105 -3 6 -6 12 -7 15
-10 52 -102 243 -140 289 -33 41 -88 91 -101 91 -7 0 -13 5 -13 10 0 6 -7 10
-15 10 -8 0 -15 5 -15 10 0 6 -5 10 -10 10 -6 0 -29 9 -53 20 -48 22 -364 98
-447 107 -72 8 -324 7 -375 -1 -22 -3 -67 -13 -100 -22 -33 -8 -67 -15 -75
-15 -8 -1 -22 -3 -30 -6 -19 -8 -30 -11 -56 -17 -12 -2 -38 -9 -58 -14 -20 -6
-36 -8 -36 -5 0 3 -6 1 -12 -4 -11 -9 -140 -51 -173 -57 -31 -6 -212 -70 -224
-80 -8 -6 -17 -10 -20 -10 -6 2 -36 -11 -151 -63 -30 -14 -61 -26 -68 -27 -7
-1 -18 -8 -24 -14 -7 -7 -17 -12 -23 -12 -6 0 -37 -14 -70 -32 -33 -17 -80
-42 -104 -55 -24 -12 -50 -28 -59 -35 -8 -7 -18 -12 -21 -11 -3 0 -32 -12 -63
-27 -32 -16 -58 -27 -58 -24 0 2 -22 -12 -50 -31 -27 -19 -52 -35 -55 -35 -4
0 -33 -18 -65 -40 -32 -22 -61 -40 -64 -40 -2 0 -31 -18 -63 -40 -32 -22 -83
-57 -113 -77 -30 -20 -67 -44 -82 -55 -15 -10 -32 -18 -38 -18 -5 0 -10 -4
-10 -8 0 -5 -37 -33 -82 -63 -112 -75 -123 -82 -140 -99 -9 -8 -39 -31 -67
-50 -28 -19 -72 -54 -97 -78 -24 -23 -46 -42 -48 -42 -7 0 -77 -63 -167 -151
-49 -47 -89 -84 -89 -83 0 1 -20 -18 -44 -43 -40 -39 -46 -42 -68 -32 -14 6
-30 26 -38 47 -7 20 -17 48 -23 62 -5 14 -11 32 -13 41 -2 9 -9 29 -15 45 -7
16 -13 31 -14 34 -1 3 -10 23 -20 45 -10 22 -19 42 -20 45 -1 3 -7 18 -13 33
-7 16 -12 30 -12 32 0 3 -11 29 -25 59 -24 53 -47 105 -50 116 -1 3 -9 22 -18
43 -9 20 -17 41 -18 45 -1 4 -13 24 -25 44 -13 21 -24 41 -24 44 0 4 -14 30
-32 57 -18 28 -33 56 -34 63 -2 13 -31 72 -93 189 -17 33 -49 85 -70 115 -22
30 -56 82 -77 115 -108 173 -145 227 -187 275 -8 8 -24 33 -37 55 -13 22 -29
45 -35 50 -6 6 -24 28 -40 50 -16 21 -36 46 -45 55 -8 9 -34 38 -56 66 -23 27
-68 81 -100 119 -32 39 -63 76 -69 83 -39 48 -267 269 -349 337 -26 22 -53 45
-59 51 -7 5 -43 34 -82 64 -38 29 -72 56 -75 60 -24 30 -328 190 -361 190 -8
0 -19 4 -25 9 -5 5 -63 21 -129 36 -66 15 -153 35 -192 45 -75 18 -176 22
-250 9z"/>
</g>
</svg>
